<svg version="1.2" xmlns="http://www.w3.org/2000/svg" viewBox="0 0.11000000000001364 595.276 841.89" width="596" height="842">
	<defs>
		<clipPath clipPathUnits="userSpaceOnUse" id="cp1">
			<path d="m603.78 850.5h-612.28v-858.89h612.28z"/>
		</clipPath>
		<clipPath clipPathUnits="userSpaceOnUse" id="cp2">
			<path d="m603.78 850.5h-612.28v-858.89h612.28z"/>
		</clipPath>
	</defs>
	<style>
		.s0 { fill: #ffffff } 
		.s1 { fill: #50bce2 } 
		.s2 { fill: #004177 } 
		.s3 { fill: none;stroke: #004177;stroke-miterlimit:10;stroke-width: 3 } 
		.s4 { fill: #68cde4 } 
		.s5 { fill: #c3cad1 } 
		.s6 { fill: #e2e5e8 } 
		.s7 { fill: #fbfbfa } 
	</style>
	<g id="PRINT">
		<path id="&lt;Path&gt;" class="s0" d="m603.78 850.5h-612.28v-858.89h612.28z"/>
		<g id="&lt;Clip Group&gt;" clip-path="url(#cp1)">
			<g id="&lt;Group&gt;">
				<g id="&lt;Group&gt;">
					<path id="&lt;Path&gt;" class="s1" d="m549.77 120.36c-8.87-6.41-17.98-12.95-28.54-15.81-10.56-2.87-23.03-1.31-30.49 6.68-10.79 11.54-6.57 31 3.41 43.25 9.98 12.24 24.29 20.09 35.78 30.94 10.55 9.97 18.53 22.28 27.56 33.64 9.03 11.36 19.65 22.15 33.2 27.34 13.55 5.19 30.6 3.47 40.25-7.37 13.41-15.04 10.42-48.11-3.34-62.18-21.38-21.85-53.02-38.54-77.83-56.49z"/>
				</g>
				<g id="&lt;Group&gt;">
					<path id="&lt;Path&gt;" class="s2" d="m39.91 130.29c41.78-5.44 83.76 5.25 124.73 15.07 40.97 9.83 83.66 18.89 124.89 10.26 48.31-10.11 90.45-43.76 139.69-47.15 43.17-2.98 84.87 18.28 117.69 46.49 11.9 10.23 23.07 21.51 36.43 29.76 13.35 8.26 29.6 13.32 44.85 9.58 27.96-6.85 41.07-38.73 46.67-66.96 8.34-42.03 8.89-87.99-12.46-125.14-21.94-38.17-63.44-60.93-105.16-75.02-117.05-39.52-244.29-24.69-367.82-23.01-58.5 0.8-119.13-1.07-172.89 22.01-43.17 18.54-79.29 53.02-99.81 95.29-18.94 39.01-24.45 84.36-15.62 126.81 3.24 15.59 10.63 46.31 31.91 44.83 17.8-1.24 30.38-26.42 43.19-36.6 18.15-14.42 40.8-23.24 63.71-26.22z"/>
				</g>
				<g id="&lt;Group&gt;">
					<path id="&lt;Path&gt;" class="s3" d="m621.43 209.07c-63.6-7.5-105.37-76.68-168.43-87.83-29.81-5.27-60.28 3.37-88.56 14.19-28.27 10.82-56.08 24.02-86.04 28.41-36.64 5.37-73.8-2.81-109.75-11.72-35.95-8.91-72.44-18.67-109.41-16.46-36.97 2.21-75.3 18.71-93.63 50.89"/>
				</g>
				<g id="&lt;Group&gt;">
					<path id="&lt;Path&gt;" class="s1" d="m3.77 112.84c9.24-4.66 20.52-6.42 29.96-2.17 9.44 4.25 15.9 15.61 12.49 25.38-3.4 9.76-14.18 14.33-22.94 19.8-11.02 6.89-20.15 16.78-26.14 28.31-3.32 6.4-6.84 14.22-13.96 15.35-7.13 1.13-13.12-5.49-16.15-12.06-15.37-33.35 8.5-60.37 36.74-74.61z"/>
				</g>
			</g>
		</g>
		<g id="&lt;Clip Group&gt;" clip-path="url(#cp2)">
			<g id="&lt;Group&gt;">
				<path id="&lt;Path&gt;" class="s1" d="m378 803.11c18.13 17.32 50.08 17.02 71 4 39.24-24.43 11.86-73.28 30.49-108.09 8.25-15.42 18.61-16.65 34.24-19.69 12.73-2.48 27.32-4.68 38.27-12.4 12.91-9.09 17.04-24.36 21.75-38.55 8.7-26.16 23.99-53.18 55.5-41.29 24.11 9.1 34.36 38.98 42.3 61.35 12.71 35.8 16.98 64.95 4.73 101.93-29.71 89.68-146.79 166.85-241.65 135.81-24.3-7.95-53.98-28.14-57.63-55.31-0.84-6.28-5.57-25.5 1-27.76z"/>
				<g id="&lt;Group&gt;">
					<path id="&lt;Path&gt;" class="s1" d="m68.66 713.97c12.27 20.34 26.47 40.32 46.35 53.33 16.47 10.77 36.22 16.16 55.9 16.4 18.43 0.22 37.03-3.92 55.18-0.71 18.16 3.21 36.63 17.3 35.87 35.72-0.47 11.34-8.28 21.39-17.96 27.32-9.68 5.92-21.05 8.37-32.24 10.23-57.54 9.53-118.49 5.45-171.14-19.64-52.64-25.1-95.84-72.89-107.79-129.97-6.54-31.27 3.23-88.56 46.63-84.13 44.64 4.57 69.09 58.13 89.2 91.45z"/>
				</g>
				<g id="&lt;Group&gt;">
					<path id="&lt;Path&gt;" class="s3" d="m-25.46 622.51c26.6 9.64 44.95 33.91 59.22 58.35 14.26 24.44 26.48 50.85 47.2 70.12 17.78 16.54 41.1 26.76 65.2 29.82 15.27 1.93 30.78 1.1 46.06 2.97 15.27 1.88 30.95 6.94 41.31 18.33"/>
				</g>
				<g id="&lt;Group&gt;">
					<path id="&lt;Path&gt;" class="s2" d="m41.43 708.51c23.1 31.53 45.34 67.34 81.7 81.67 63.93 25.18 135.27-28.52 202.65-15.05 40.32 8.06 75.43 39.7 116.48 37.31 31-1.8 57.46-23.01 77.92-46.37 20.47-23.36 37.6-50.07 61.95-69.33 24.36-19.27 59.24-29.78 86.67-15.23 19.86 10.54 31.8 32.15 36.65 54.11 10.08 45.54-6.74 94.42-37.34 129.63-30.59 35.2-73.53 57.9-118.15 71.48-44.63 13.59-91.31 18.72-137.68 23.78q-79.64 8.7-159.28 17.4c-42.38 4.63-85.02 9.27-127.55 6.29-42.52-2.98-85.36-14.03-120.39-38.32-44.17-30.63-72.87-80.93-82.2-133.87-7.31-41.54-3.27-84.53 8.63-124.83 3.67-12.41 8.03-30.83 21.02-36.96 14.1-6.64 32.07 4.08 43.48 11.79 18.03 12.18 32.67 29.06 45.44 46.5z"/>
				</g>
				<g id="&lt;Group&gt;">
					<g id="&lt;Group&gt;">
						<path id="&lt;Path&gt;" class="s2" d="m408.77 719.48c-1.41-0.53-2.93-0.81-4.48-0.9-1.56-0.04-3.13 0.17-4.66 0.62-6.19 1.8-10.8 8.01-11.05 14.63-0.12 3.3 0.73 6.65 2.49 9.49 1.8 2.8 4.39 5.08 7.45 6.4q2.32 0.96 4.79 1.25c1.65 0.17 3.3 0.05 4.91-0.25 2.29-0.46 4.44-1.47 6.28-2.86l7.52 7.94 3.99-3.79-9.35-9.86-1.77-1.87-2.12 1.76-0.01 0.01c-3.34 2.6-7.87 3.07-11.42 1.35-3.56-1.64-6.02-5.42-5.97-9.39 0.03-0.98 0.14-1.97 0.4-2.94q0.43-1.44 1.23-2.73c1.13-1.69 2.69-3.11 4.57-4.07 3.76-1.95 8.85-2.02 13.6 0.76-1.26-2.45-3.59-4.47-6.4-5.55z"/>
					</g>
					<path id="&lt;Path&gt;" class="s4" d="m495.05 832.03c-3.94 3.74-10.05 3.95-14.25 0.51-23.77-19.46-44.43-40.54-61-63.75-3.54-4.96-2.81-11.8 1.61-15.99l1.64-1.55c4.42-4.2 11.29-4.56 16.05-0.76 22.31 17.77 42.26 39.51 60.43 64.29 3.21 4.37 2.68 10.46-1.26 14.2z"/>
					<path id="&lt;Path&gt;" class="s0" d="m471.32 803.78q-0.08 0.09-0.17 0.18c-3.61 3.42-11.69 0.76-18.05-5.95-6.35-6.7-8.58-14.91-4.97-18.33q0.08-0.08 0.18-0.16 0.08-0.09 0.17-0.17c3.61-3.43 11.69-0.76 18.04 5.94 6.36 6.7 8.59 14.91 4.98 18.33q-0.09 0.09-0.18 0.16z"/>
				</g>
				<g id="&lt;Group&gt;">
					<g id="&lt;Group&gt;">
						<path id="&lt;Path&gt;" class="s5" d="m537.74 809.96c-5.08-3.25-8-9.32-6.94-15.64l6.99-41.53 18.61 3.13-6.99 41.54c-1.06 6.32-5.81 11.09-11.67 12.5z"/>
						<path id="&lt;Path&gt;" class="s6" d="m518.52 749.02l1.11-6.64 57.34 9.66-1.12 6.63c-0.35 2.09-2.33 3.5-4.42 3.15l-49.77-8.38c-2.09-0.35-3.49-2.33-3.14-4.42z"/>
						<path id="&lt;Path&gt;" class="s6" d="m532.25 765.33c0.43-2.58 2.7-4.44 5.3-4.36l15.32 0.42c3.18 0.09 5.55 2.97 5.02 6.1-0.43 2.57-2.7 4.43-5.3 4.36l-15.33-0.43c-3.17-0.08-5.54-2.96-5.01-6.09z"/>
						<path id="&lt;Path&gt;" class="s6" d="m529.43 782.09c0.43-2.58 2.69-4.44 5.3-4.36l15.32 0.42c3.18 0.09 5.54 2.97 5.02 6.1-0.44 2.57-2.7 4.43-5.31 4.36l-15.32-0.43c-3.17-0.08-5.54-2.96-5.01-6.09z"/>
						<path id="&lt;Path&gt;" class="s6" d="m526.61 798.85c0.43-2.58 2.69-4.44 5.3-4.36l15.32 0.42c3.18 0.09 5.54 2.97 5.01 6.1-0.43 2.57-2.69 4.43-5.3 4.36l-15.32-0.42c-3.18-0.09-5.54-2.97-5.01-6.1z"/>
						<path id="&lt;Path&gt;" class="s0" d="m553.82 714.43q-6.16-4.52-12.33-9.05c-3.56-2.61-7.18-5.26-11.32-6.8-4.14-1.55-8.94-1.87-12.87 0.14-4.61 2.36-7.24 7.55-7.8 12.7-0.56 5.15 0.65 10.31 2.02 15.31 1.38 4.99 2.93 10 3.09 15.18 0.02 0.67-0.02 1.34-0.04 2l66.69 11.23c0.19-0.64 0.37-1.28 0.61-1.91 1.85-4.83 4.96-9.06 7.89-13.33 2.93-4.27 5.77-8.75 6.92-13.8 1.16-5.04 0.37-10.81-3.21-14.55-3.06-3.19-7.7-4.46-12.11-4.35-4.42 0.1-8.7 1.41-12.92 2.72q-7.31 2.26-14.62 4.51z"/>
					</g>
				</g>
				<g id="&lt;Group&gt;">
					<path id="&lt;Path&gt;" class="s1" d="m127.69 709.1l-3.22 7.89c-0.73 1.77-2.76 2.62-4.54 1.9-3.04-1.25-6.51 0.21-7.76 3.25l-30.31 74.13c-1.24 3.04 0.22 6.52 3.26 7.76l60.73 24.83c3.04 1.25 6.51-0.21 7.76-3.25l30.31-74.13c1.24-3.04-0.22-6.51-3.26-7.76-1.78-0.73-2.63-2.75-1.9-4.53l3.23-7.89z"/>
					<g id="&lt;Group&gt;">
						<path id="&lt;Path&gt;" class="s2" d="m125.52 714.23c-2.3-0.94-3.4-3.57-2.46-5.87l3.4-8.33c0.94-2.3 3.57-3.4 5.87-2.46l54.42 22.26c2.31 0.93 3.41 3.56 2.47 5.86l-3.41 8.33c-0.94 2.3-3.57 3.4-5.87 2.46z"/>
					</g>
					<path id="&lt;Path&gt;" class="s7" d="m102 790.36c-2.96-1.21-4.38-4.59-3.16-7.54l17.53-42.89c1.21-2.95 4.58-4.37 7.54-3.16l41.38 16.92c2.96 1.21 4.38 4.59 3.17 7.54l-17.54 42.88c-1.21 2.96-4.58 4.38-7.54 3.17z"/>
					<path id="&lt;Path&gt;" class="s1" d="m139.98 756.53q-0.03 0-0.05 0c-2.72-2.4-4.94-5.54-8.41-6.44-1.99-0.51-4.2-0.14-5.91 1-1.72 1.14-2.92 3.02-3.23 5.06-0.56 3.76 1.8 7.39 1.76 11.19-0.02 2.46-1.04 4.81-2.25 6.95-1.2 2.15-2.6 4.21-3.5 6.5-0.29 0.74-0.53 1.53-0.5 2.32 0.03 0.8 0.36 1.62 1.01 2.08 1.26 0.89 3.02 0.1 4.19-0.91 1.39-1.19 2.5-2.67 3.76-4 1.25-1.34 2.72-2.57 4.48-3.06q0.07-0.02 0.15-0.03 0.02 0.03 0.03 0.05 0.03 0 0.07-0.01 0.04 0.06 0.07 0.12c0.92 1.59 1.11 3.49 1.07 5.32-0.04 1.84-0.29 3.67-0.13 5.49 0.13 1.54 0.83 3.34 2.36 3.59 0.78 0.13 1.59-0.22 2.17-0.77 0.58-0.56 0.96-1.28 1.27-2.01 0.97-2.27 1.4-4.71 2.05-7.09 0.65-2.38 1.56-4.77 3.27-6.54 2.63-2.73 6.86-3.67 9.1-6.75 1.21-1.67 1.67-3.85 1.24-5.87-0.42-2.01-1.74-3.82-3.52-4.86-3.1-1.78-6.89-1.1-10.51-1.29q-0.02-0.02-0.04-0.04z"/>
				</g>
			</g>
		</g>
		<g id="&lt;Group&gt;">
			<g id="&lt;Group&gt;">
				<g id="&lt;Group&gt;">
					<g id="&lt;Group&gt;">
					</g>
					<g id="&lt;Group&gt;">
					</g>
				</g>
				<g id="&lt;Group&gt;">
					<g id="&lt;Group&gt;">
					</g>
				</g>
			</g>
		</g>
	</g>
</svg>